<?xml version="1.0" encoding="utf-8"?>
<!-- Generator: Adobe Illustrator 24.1.0, SVG Export Plug-In . SVG Version: 6.00 Build 0)  -->
<svg version="1.1" id="Слой_1" xmlns="http://www.w3.org/2000/svg" xmlns:xlink="http://www.w3.org/1999/xlink" x="0px" y="0px"
	 viewBox="0 0 673.9 219" style="enable-background:new 0 0 673.9 219;" xml:space="preserve">
<style type="text/css">
	.st0{fill:#060606;stroke:#232323;stroke-miterlimit:10;}
	.st1{fill:#929292;stroke:#232323;stroke-miterlimit:10;}
	.st2{fill:#121212;stroke:#232323;stroke-miterlimit:10;}
	.st3{fill:#BEBEBE;stroke:#232323;stroke-miterlimit:10;}
	.st4{fill:#1E1E1E;stroke:#232323;stroke-miterlimit:10;}
	.st5{fill:#282828;stroke:#232323;stroke-miterlimit:10;}
	.st6{fill:#2D2D2D;stroke:#232323;stroke-miterlimit:10;}
	.st7{fill:#161616;stroke:#232323;stroke-miterlimit:10;}
	.st8{fill:#2C2C2C;stroke:#232323;stroke-miterlimit:10;}
	.st9{fill:#DBDBDB;stroke:#232323;stroke-miterlimit:10;}
	.st10{fill:#888888;stroke:#232323;stroke-miterlimit:10;}
	.st11{fill:#373737;stroke:#232323;stroke-miterlimit:10;}
	.st12{fill:#595959;stroke:#232323;stroke-miterlimit:10;}
	.st13{fill:#8C8C8C;stroke:#232323;stroke-miterlimit:10;}
	.st14{fill:#2E2E2E;stroke:#232323;stroke-miterlimit:10;}
	.st15{fill:#252525;stroke:#232323;stroke-miterlimit:10;}
	.st16{fill:#A9A9A9;stroke:#232323;stroke-miterlimit:10;}
	.st17{fill:#737373;stroke:#232323;stroke-miterlimit:10;}
	.st18{fill:#646464;stroke:#232323;stroke-miterlimit:10;}
	.st19{fill:#181818;stroke:#232323;stroke-miterlimit:10;}
	.st20{fill:#535353;stroke:#232323;stroke-miterlimit:10;}
	.st21{opacity:0.6;}
</style>
<g id="XMLID_2870_">
	<g id="XMLID_3065_">
		<path id="XMLID_3066_" class="st0" d="M538.2,122c-55.5,0-60.5,65.8-61,78.7c0,0.2,0,0.3-0.1,0.5l0,0c7.4-1,13.7-3.3,18.5-7.1
			c0.7-0.2,1.2-0.4,1.7-0.8c-3.4-6.6-5.4-14-5.4-21.9c0-25.9,20.8-46.9,46.4-46.9c25.6,0,46.4,21,46.4,46.9c0,7-1.5,13.6-4.2,19.5
			c1-0.2,2.1-0.6,3.3-1.1c2.2,1.8,5,2.8,8.5,2.5c0.9,0.8,2.2,1.2,3.9,1.5C595.2,173.6,587.8,122,538.2,122z"/>
	</g>
	<g id="XMLID_3063_">
		<path id="XMLID_3064_" class="st0" d="M137.6,122c-55.5,0-60.5,65.8-61,78.7c0,0.2,0,0.3-0.1,0.5l0,0c7.4-1,13.7-3.3,18.5-7.1
			c0.7-0.2,1.2-0.4,1.7-0.8c-3.4-6.6-5.4-14-5.4-21.9c0-25.9,20.8-46.9,46.4-46.9c25.6,0,46.4,21,46.4,46.9c0,7-1.5,13.6-4.2,19.5
			c1-0.2,2.1-0.6,3.3-1.1c2.2,1.8,5,2.8,8.5,2.5c0.9,0.8,2.2,1.2,3.9,1.5C194.6,173.6,187.2,122,137.6,122z"/>
	</g>
	<path id="XMLID_3062_" class="st1" d="M8.7,114.3l-1.4-2.8c-0.5-1-0.6-2.2-0.4-3.3l1.6-7.2c0-0.2,0.1-0.4,0.2-0.6l5.9-15
		c0,0,1-2.7,2.4-5.8c1.4-3,14.4-9.8,21.1-12.5c6.7-2.7,71.7-28.8,82.9-33s66.4-22.7,79.8-24.8c13.4-2,45-2.8,61.5-2.6
		c16.7,0.2,62.3,1.5,62.3,1.5l0,0c0,0,19.1,1.2,28.6,3c7,1.4,18.7,4.8,18.7,4.8l73.9,45.9l12.8,9.1l12.6,1.7l8,1.9
		c21.7,1.3,108,17.8,125.1,23.4c17.3,5.8,32.7,10.2,41.9,13.6c9.2,3.4,12.8,10.6,12.8,10.6l2.8,7.2v3.4c0,0.3-0.2,0.5-0.5,0.5h-1
		l8,5.6c0.4,0.2,0.6,0.7,0.6,1.1c1.2,0,1.2,3.3,0,3.3v0.8c0,0.5-0.4,0.8-0.8,0.8h-19.2c-0.9,0-1.6,0.7-1.6,1.6v8.2
		c0,0.9,0.7,1.6,1.6,1.6h19.4c0.5,0,0.9-0.4,0.9-0.9V155c0.8,0,1.4,0.6,1.4,1.4v5.4c0,0.8-0.6,1.4-1.4,1.4h-3.3
		c-2.5,0-10,4.6-10,21.3h5.8c0.4,0,0.9,0.2,1.1,0.5l2.1,2.6c0.2,0.3,0.3,0.6,0.3,1v2.4c0,0.4,0.2,0.9,0.5,1.1l3.2,2.7
		c0.3,0.3,0.5,0.7,0.5,1.1v1.5c0,2.1-1.7,3.8-3.8,3.8h-69.2c0,0,3.5-79.8-58-79.8c-55.5,0-60.5,65.8-61,78.7c0,1.2-1,2.1-2.2,2.1
		l-150.5-7l0,0h-21c-0.1-0.2-0.2-0.3-0.4-0.5l-32.2-2.3c-4-0.3-7.8-1.7-11-4.1c-2.4-1.8-5.6-4.1-9.3-6.9h-36.6
		c-5.6,0-10.3-4.1-11.2-9.7c-2.2-14.7-7.1-28-17.3-38.7c-0.6-0.5-1-0.7-1-0.7c-3.8-3.6-21.5-19-47.1-19c-23.6,0-39.8,10-50.8,22.6
		L9.8,134c0.3-1.6,0.3-3.1,0-4.5c-0.2-0.7-0.6-1.3-1.1-1.9C6.8,126,6.6,114.4,8.7,114.3z"/>
	<path id="XMLID_3061_" class="st2" d="M324.5,182l131.8,2.8c5.1,0.1,9.5-3.2,10.8-8.2c5-18.8,21.8-62.8,71.2-62.8
		c25.6,0,43.3,15.5,47.1,19c0.5,0.5,1.2,0.7,1.9,0.8l40.3,0.3l32.4-0.3l8,5.6c0.4,0.2,0.6,0.7,0.6,1.1c1.2,0,1.2,3.3,0,3.3v0.8
		c0,0.5-0.4,0.8-0.8,0.8h-19.2c-0.9,0-1.6,0.7-1.6,1.6v8.2c0,0.9,0.7,1.6,1.6,1.6h19.4c0.5,0,0.9-0.4,0.9-0.9v-0.5
		c0.8,0,1.4,0.6,1.4,1.4v5.4c0,0.8-0.6,1.4-1.4,1.4h-3.3c-2.4,0-9,4-9.9,18.1c-0.1,1-0.1,2.1-0.1,3.2h5.8c0.4,0,0.9,0.2,1.1,0.5
		l2.1,2.6c0.2,0.3,0.3,0.6,0.3,1v2.4c0,0.4,0.2,0.9,0.5,1.1l3.2,2.7c0.3,0.3,0.5,0.7,0.5,1.1v1.5c0,2.1-1.7,3.8-3.8,3.8H596
		c0,0,3.5-79.8-58-79.8c-55.5,0-60.5,65.8-61,78.7c0,1.2-1,2.1-2.2,2.1l-150.5-7l0,0h-21c-0.1-0.2-0.2-0.3-0.4-0.5l-32.2-2.3
		c-4-0.3-7.8-1.7-11-4.1c-2.4-1.8-5.6-4.1-9.3-6.9h74.1V182z"/>
	<ellipse id="XMLID_3060_" class="st3" cx="250.3" cy="105" rx="2.7" ry="2.7"/>
	<ellipse id="XMLID_3059_" class="st4" cx="250.3" cy="105" rx="1.7" ry="1.7"/>
	<path id="XMLID_3058_" class="st1" d="M250.3,103.2c-0.9,0-1.6,0.7-1.7,1.5c0-0.1,0-0.1,0-0.2c0-1,0.8-1.7,1.7-1.7
		c0.9,0,1.7,0.8,1.7,1.7c0,0.1,0,0.1,0,0.2C252,103.9,251.2,103.2,250.3,103.2z"/>
	<path id="XMLID_3057_" class="st5" d="M377,18.9c-4.6-1.6-10.6-1.6-17.1-1c28.4,17.8,56.5,36.4,84.6,55.6l16.5-3.6
		c-26.3-17.8-54.1-34.6-83.2-50.6C377.6,19.1,377.3,19,377,18.9z"/>
	<path id="XMLID_3056_" class="st6" d="M448.4,72.6c-26.9-18.3-53.7-36.1-80.8-53.1c-0.5-0.3-0.3-1,0.3-1.1c2.4-0.2,4.8-0.3,7-0.2
		c0.7,0.2,1.4,0.4,2.1,0.6c0.3,0.1,0.6,0.2,0.8,0.4c29.1,16.1,56.8,32.8,83.2,50.6L448.4,72.6z"/>
	<path id="XMLID_3055_" class="st0" d="M461,69.9l-16.5,3.6c-27.8-19-55.5-37.3-83.5-54.9c-0.4-0.2-0.2-0.8,0.2-0.8
		c6-0.5,11.5-0.5,15.8,1.1c-0.6-1-1.6-1.8-2.8-2.1c-2.1-0.5-4.4-1-6.9-1c-2.2,0-4.7,0.1-7.5,0.4l-3.8,0.4c-0.4,0-0.5,0.6-0.2,0.8
		l3.2,2c28.2,17.7,56.6,36.4,84.6,55.6l0.6,0.4l20.1-4.4c0.4-0.1,0.4-0.6,0-0.7C463.4,69.8,462.3,69.7,461,69.9z"/>
	<g id="XMLID_2991_">
		<g id="XMLID_2996_">
			<ellipse id="XMLID_3054_" class="st0" cx="538.5" cy="166.8" rx="48.7" ry="49.2"/>
			<ellipse id="XMLID_3053_" class="st7" cx="538.5" cy="166.8" rx="47.1" ry="47.6"/>
			<ellipse id="XMLID_3052_" class="st0" cx="538.5" cy="166.8" rx="43.1" ry="43.6"/>
			<ellipse id="XMLID_3051_" class="st2" cx="538.5" cy="166.8" rx="37.4" ry="37.8"/>
			<ellipse id="XMLID_3050_" class="st8" cx="538.5" cy="166.8" rx="35.3" ry="35.7"/>
			<ellipse id="XMLID_3049_" class="st9" cx="538.5" cy="166.8" rx="32.8" ry="33.2"/>
			<ellipse id="XMLID_3048_" class="st8" cx="538.5" cy="166.8" rx="30.4" ry="30.7"/>
			<ellipse id="XMLID_3047_" class="st9" cx="538.5" cy="166.8" rx="29.7" ry="30"/>
			<ellipse id="XMLID_3046_" class="st2" cx="538.5" cy="166.8" rx="27.4" ry="27.7"/>
			<ellipse id="XMLID_3045_" class="st0" cx="538.5" cy="166.8" rx="26.7" ry="27"/>
			<ellipse id="XMLID_3044_" class="st10" cx="538.5" cy="166.8" rx="16.4" ry="16.6"/>
			<ellipse id="XMLID_3043_" class="st4" cx="538.5" cy="166.8" rx="19.9" ry="20.1"/>
			<path id="XMLID_3042_" class="st8" d="M539.9,151.4c4.3,0.1,8.1,1.9,10.9,4.8c2.6,3,4.1,7,4,11.3c-0.3,9.1-7.8,16.3-16.9,16
				c-4.3-0.1-8.1-1.9-10.9-4.8c-2.6-3-4.1-7-4-11.3C523.3,158.2,530.9,151.1,539.9,151.4z"/>
			<path id="XMLID_3041_" class="st11" d="M538.6,153.1c3.9,0.1,7.5,1.7,10.1,4.3c2.4,2.8,3.8,6.5,3.7,10.4
				c-0.3,8.4-7.2,15.1-15.6,14.8c-3.9-0.1-7.4-1.7-10-4.2c-2.3-2.7-3.7-6.3-3.8-10.1c0-0.1,0-0.3,0-0.4
				C523.3,159.5,530.3,152.9,538.6,153.1z"/>
			<ellipse id="XMLID_3040_" class="st4" cx="538.5" cy="166.8" rx="6.2" ry="6.3"/>
			<ellipse id="XMLID_3039_" class="st0" cx="538.5" cy="166.8" rx="4.4" ry="4.4"/>
			<ellipse id="XMLID_3038_" class="st12" cx="538.5" cy="166.8" rx="3.2" ry="3.2"/>
			<ellipse id="XMLID_3037_" class="st13" cx="538.5" cy="166.8" rx="2.1" ry="2.1"/>
			<g id="XMLID_3032_">
				<ellipse id="XMLID_3036_" class="st4" cx="547.7" cy="171.1" rx="2.4" ry="2.4"/>
				<ellipse id="XMLID_3035_" class="st4" cx="534.2" cy="176.2" rx="2.4" ry="2.4"/>
				<ellipse id="XMLID_3034_" class="st4" cx="529.2" cy="162.6" rx="2.4" ry="2.4"/>
				<ellipse id="XMLID_3033_" class="st4" cx="542.7" cy="157.4" rx="2.4" ry="2.4"/>
			</g>
			<g id="XMLID_3023_">
				<path id="XMLID_3031_" class="st4" d="M538.8,156.1c-2.1-0.1-3.8-1.9-3.8-4v-0.2c1.5-0.4,3.2-0.6,4.9-0.6c1,0,2,0.2,2.9,0.4v0.6
					C542.7,154.5,540.9,156.2,538.8,156.1z"/>
				<path id="XMLID_3030_" class="st4" d="M551.7,159.7c-0.8,0.7-1.7,1.1-2.8,1.1c-1,0-2-0.5-2.7-1.2c-0.7-0.8-1.1-1.7-1.1-2.8
					c0-1,0.5-2,1.2-2.7l0.7-0.7c1.4,0.7,2.7,1.7,3.8,2.8c0.7,0.8,1.3,1.7,1.9,2.6L551.7,159.7z"/>
				<path id="XMLID_3029_" class="st4" d="M549.1,167.1c0.1-2.1,1.9-3.8,4-3.8h1.3c0.3,1.3,0.4,2.6,0.4,3.9c0,1.3-0.2,2.6-0.6,3.8
					h-1.3C550.7,171.2,549,169.4,549.1,167.1z"/>
				<path id="XMLID_3028_" class="st4" d="M544.6,177.4c0-1,0.5-2,1.2-2.7c0.8-0.7,1.7-1.1,2.8-1.1c1,0,2,0.5,2.7,1.2l0.9,1
					c-1.4,2.2-3.4,4-5.6,5.5l-0.9-1C544.9,179.5,544.6,178.5,544.6,177.4z"/>
				<path id="XMLID_3027_" class="st4" d="M534.2,182.8v-1.4c0.1-2.1,1.9-3.8,4-3.8c2.1,0,3.8,1.9,3.8,4v1.4c-1.3,0.3-2.6,0.4-4,0.4
					C536.6,183.3,535.4,183.1,534.2,182.8z"/>
				<path id="XMLID_3026_" class="st4" d="M525.3,174.1c0.8-0.7,1.7-1.1,2.8-1.1c1,0,2,0.5,2.7,1.2c0.7,0.8,1.1,1.7,1.1,2.8
					c0,1-0.5,2-1.2,2.7l-1,1c-0.9-0.6-1.8-1.3-2.6-2.1c-1-1.1-1.8-2.4-2.5-3.8L525.3,174.1z"/>
				<path id="XMLID_3025_" class="st4" d="M527.9,166.6c-0.1,2.1-1.9,3.8-4,3.8h-0.7c-0.1-1-0.2-2-0.2-3c0.1-1.7,0.4-3.3,0.9-4.9
					h0.2C526.3,162.6,528,164.4,527.9,166.6z"/>
				<path id="XMLID_3024_" class="st4" d="M531.2,159c-0.8,0.7-1.7,1.1-2.8,1.1c-1,0-2-0.5-2.7-1.2l0,0c1.4-2.2,3.4-4,5.7-5.4v0.1
					C532.8,155.1,532.8,157.6,531.2,159z"/>
			</g>
			<path id="XMLID_3022_" class="st11" d="M520.3,177.9h1.4c0.2,0,0.3-0.1,0.3-0.3l0.7-22.6c0-0.2-0.1-0.3-0.3-0.3H521
				c-0.2,0-0.3,0.1-0.3,0.3l-0.7,22.6C520,177.8,520.2,177.9,520.3,177.9z"/>
			<path id="XMLID_3021_" class="st14" d="M518.6,176.6h1.4l0.6-20.7h-1.4c-0.4,0-0.7,0.2-0.8,0.6c-1.6,6.7-1.8,13.1-0.6,19.5
				C518,176.3,518.3,176.6,518.6,176.6z"/>
			<polygon id="XMLID_3020_" class="st15" points="520.7,155.9 518.8,176.6 520.1,176.6 			"/>
			<g id="XMLID_3011_">
				<path id="XMLID_3019_" class="st12" d="M539.3,139.8c1.1,0,2.1,0.1,3.2,0.3l-0.4,12.2c-0.1,1.7-1.5,3.1-3.3,3.1l0,0
					c-1.7-0.1-3.1-1.5-3.1-3.3l0.4-12.2C537.2,139.8,538.2,139.8,539.3,139.8z"/>
				<path id="XMLID_3018_" class="st12" d="M558,148.3c0.7,0.8,1.4,1.6,2,2.4l-8.8,8.4c-1.3,1.2-3.3,1.1-4.5-0.1l0,0
					c-1.2-1.3-1.1-3.3,0.1-4.5l8.8-8.4C556.5,146.8,557.2,147.5,558,148.3z"/>
				<path id="XMLID_3017_" class="st12" d="M565.3,167.6c0,1.1-0.1,2.1-0.3,3.2l-12.1-0.4c-1.7-0.1-3.1-1.5-3.1-3.3l0,0
					c0.1-1.7,1.5-3.1,3.3-3.1l12.1,0.4C565.2,165.5,565.3,166.6,565.3,167.6z"/>
				<path id="XMLID_3016_" class="st12" d="M556.9,186.5c-0.8,0.7-1.6,1.4-2.4,2l-8.3-8.9c-1.2-1.3-1.1-3.3,0.1-4.5l0,0
					c1.3-1.2,3.3-1.1,4.5,0.1l8.3,8.9C558.4,185,557.6,185.8,556.9,186.5z"/>
				<path id="XMLID_3015_" class="st12" d="M537.7,193.9c-1.1,0-2.1-0.1-3.2-0.3l0.4-12.2c0.1-1.7,1.5-3.1,3.3-3.1l0,0
					c1.7,0.1,3.1,1.5,3.1,3.3l-0.4,12.2C539.8,193.9,538.8,193.9,537.7,193.9z"/>
				<path id="XMLID_3014_" class="st12" d="M519.1,185.4c-0.7-0.8-1.4-1.6-2-2.4l8.8-8.4c1.3-1.2,3.3-1.1,4.5,0.1l0,0
					c1.2,1.3,1.1,3.3-0.1,4.5l-8.8,8.4C520.6,186.9,519.9,186.2,519.1,185.4z"/>
				<path id="XMLID_3013_" class="st12" d="M511.9,166.1c0-1.1,0.1-2.1,0.3-3.2l12.1,0.4c1.7,0.1,3.1,1.5,3.1,3.3l0,0
					c-0.1,1.7-1.5,3.1-3.3,3.1l-12.1-0.4C511.9,168.2,511.8,167.1,511.9,166.1z"/>
				<path id="XMLID_3012_" class="st12" d="M520.3,147.2c0.8-0.7,1.6-1.4,2.4-2l8.3,8.9c1.2,1.3,1.1,3.3-0.1,4.5l0,0
					c-1.3,1.2-3.3,1.1-4.5-0.1l-8.3-8.9C518.8,148.7,519.5,147.9,520.3,147.2z"/>
			</g>
			<g id="XMLID_3006_">
				<ellipse id="XMLID_3010_" class="st12" cx="547.7" cy="171.1" rx="1.2" ry="1.2"/>
				<ellipse id="XMLID_3009_" class="st12" cx="534.2" cy="176.2" rx="1.2" ry="1.2"/>
				<ellipse id="XMLID_3008_" class="st12" cx="529.2" cy="162.6" rx="1.2" ry="1.2"/>
				<ellipse id="XMLID_3007_" class="st12" cx="542.7" cy="157.4" rx="1.2" ry="1.2"/>
			</g>
			<g id="XMLID_2997_">
				<path id="XMLID_3005_" class="st13" d="M541.4,140L541,152c0,0.4-0.4,0.8-0.8,0.8l0,0c-0.4,0-0.8-0.4-0.8-0.8l0.4-12
					C540.3,139.9,540.8,139.9,541.4,140z"/>
				<path id="XMLID_3004_" class="st13" d="M559.3,150l-8.6,8.2c-0.3,0.3-0.8,0.3-1.1,0l0,0c-0.3-0.3-0.3-0.8,0-1.1l8.7-8.3
					C558.7,149,559,149.5,559.3,150z"/>
				<path id="XMLID_3003_" class="st13" d="M565.1,169.8l-11.8-0.4c-0.4,0-0.8-0.4-0.8-0.8l0,0c0-0.4,0.4-0.8,0.8-0.8l11.9,0.4
					C565.2,168.7,565.2,169.3,565.1,169.8z"/>
				<path id="XMLID_3002_" class="st13" d="M555.3,188l-8.1-8.7c-0.3-0.3-0.3-0.8,0-1.1l0,0c0.3-0.3,0.8-0.3,1.1,0l8.2,8.8
					C556.1,187.2,555.7,187.6,555.3,188z"/>
				<path id="XMLID_3001_" class="st13" d="M535.6,193.7l0.4-11.9c0-0.4,0.4-0.8,0.8-0.8l0,0c0.4,0,0.8,0.4,0.8,0.8l-0.4,12
					C536.7,193.8,536.2,193.8,535.6,193.7z"/>
				<path id="XMLID_3000_" class="st13" d="M517.8,183.8l8.6-8.2c0.3-0.3,0.8-0.3,1.1,0l0,0c0.3,0.3,0.3,0.8,0,1.1l-8.7,8.3
					C518.5,184.6,518.1,184.2,517.8,183.8z"/>
				<path id="XMLID_2999_" class="st13" d="M512,164l11.8,0.4c0.4,0,0.8,0.4,0.8,0.8l0,0c0,0.4-0.4,0.8-0.8,0.8l-11.9-0.4
					C511.9,165,512,164.5,512,164z"/>
				<path id="XMLID_2998_" class="st13" d="M521.7,145.8l8.1,8.7c0.3,0.3,0.3,0.8,0,1.1l0,0c-0.3,0.3-0.8,0.3-1.1,0l-8.2-8.8
					C521,146.5,521.4,146.2,521.7,145.8z"/>
			</g>
		</g>
		<g id="XMLID_2992_">
			<path id="XMLID_2993_" class="st8" d="M491.6,166.8c0-26.1,21-47.3,46.8-47.3s46.8,21.2,46.8,47.3s-21,47.3-46.8,47.3
				S491.6,192.9,491.6,166.8z M492.3,166.8c0,25.7,20.7,46.6,46.1,46.6c25.4,0,46.1-20.9,46.1-46.6c0-25.7-20.7-46.6-46.1-46.6
				C513,120.2,492.3,141.2,492.3,166.8z"/>
		</g>
	</g>
	<g id="XMLID_2927_">
		<g id="XMLID_2932_">
			<ellipse id="XMLID_2990_" class="st0" cx="137.7" cy="166.8" rx="48.7" ry="49.2"/>
			<ellipse id="XMLID_2989_" class="st7" cx="137.7" cy="166.8" rx="47.1" ry="47.6"/>
			<ellipse id="XMLID_2988_" class="st0" cx="137.7" cy="166.8" rx="43.1" ry="43.6"/>
			<ellipse id="XMLID_2987_" class="st2" cx="137.7" cy="166.8" rx="37.4" ry="37.8"/>
			<ellipse id="XMLID_2986_" class="st8" cx="137.7" cy="166.8" rx="35.3" ry="35.7"/>
			<ellipse id="XMLID_2985_" class="st9" cx="137.7" cy="166.8" rx="32.8" ry="33.2"/>
			<ellipse id="XMLID_2984_" class="st8" cx="137.7" cy="166.8" rx="30.4" ry="30.7"/>
			<ellipse id="XMLID_2983_" class="st9" cx="137.7" cy="166.8" rx="29.7" ry="30"/>
			<ellipse id="XMLID_2982_" class="st2" cx="137.7" cy="166.8" rx="27.4" ry="27.7"/>
			<ellipse id="XMLID_2981_" class="st0" cx="137.7" cy="166.8" rx="26.7" ry="27"/>
			<ellipse id="XMLID_2980_" class="st10" cx="137.7" cy="166.8" rx="16.4" ry="16.6"/>
			<ellipse id="XMLID_2979_" class="st4" cx="137.7" cy="166.8" rx="19.9" ry="20.1"/>
			<path id="XMLID_2978_" class="st8" d="M139.2,151.4c4.3,0.1,8.1,1.9,10.9,4.8c2.6,3,4.1,7,4,11.3c-0.3,9.1-7.8,16.3-16.9,16
				c-4.3-0.1-8.1-1.9-10.9-4.8c-2.6-3-4.1-7-4-11.3C122.6,158.2,130.1,151.1,139.2,151.4z"/>
			<path id="XMLID_2977_" class="st11" d="M137.9,153.1c3.9,0.1,7.5,1.7,10.1,4.3c2.4,2.8,3.8,6.5,3.7,10.4
				c-0.3,8.4-7.2,15.1-15.6,14.8c-3.9-0.1-7.4-1.7-10-4.2c-2.3-2.7-3.7-6.3-3.8-10.1c0-0.1,0-0.3,0-0.4
				C122.6,159.5,129.5,152.9,137.9,153.1z"/>
			<ellipse id="XMLID_2976_" class="st4" cx="137.7" cy="166.8" rx="6.2" ry="6.3"/>
			<ellipse id="XMLID_2975_" class="st0" cx="137.7" cy="166.8" rx="4.4" ry="4.4"/>
			<ellipse id="XMLID_2974_" class="st12" cx="137.7" cy="166.8" rx="3.2" ry="3.2"/>
			<ellipse id="XMLID_2973_" class="st13" cx="137.7" cy="166.8" rx="2.1" ry="2.1"/>
			<g id="XMLID_2968_">
				<ellipse id="XMLID_2972_" class="st4" cx="147" cy="171.1" rx="2.4" ry="2.4"/>
				<ellipse id="XMLID_2971_" class="st4" cx="133.5" cy="176.2" rx="2.4" ry="2.4"/>
				<ellipse id="XMLID_2970_" class="st4" cx="128.4" cy="162.6" rx="2.4" ry="2.4"/>
				<ellipse id="XMLID_2969_" class="st4" cx="141.9" cy="157.4" rx="2.4" ry="2.4"/>
			</g>
			<g id="XMLID_2959_">
				<path id="XMLID_2967_" class="st4" d="M138,156.1c-2.1-0.1-3.8-1.9-3.8-4v-0.2c1.5-0.4,3.2-0.6,4.9-0.6c1,0,2,0.2,2.9,0.4v0.6
					C142,154.5,140.2,156.2,138,156.1z"/>
				<path id="XMLID_2966_" class="st4" d="M151,159.7c-0.8,0.7-1.7,1.1-2.8,1.1c-1,0-2-0.5-2.7-1.2c-0.7-0.8-1.1-1.7-1.1-2.8
					c0-1,0.5-2,1.2-2.7l0.7-0.7c1.4,0.7,2.7,1.7,3.8,2.8c0.7,0.8,1.3,1.7,1.9,2.6L151,159.7z"/>
				<path id="XMLID_2965_" class="st4" d="M148.4,167.1c0.1-2.1,1.9-3.8,4-3.8h1.3c0.3,1.3,0.4,2.6,0.4,3.9c0,1.3-0.2,2.6-0.6,3.8
					h-1.3C150,171.2,148.3,169.4,148.4,167.1z"/>
				<path id="XMLID_2964_" class="st4" d="M143.8,177.4c0-1,0.5-2,1.2-2.7c0.8-0.7,1.7-1.1,2.8-1.1c1,0,2,0.5,2.7,1.2l0.9,1
					c-1.4,2.2-3.4,4-5.6,5.5l-0.9-1C144.2,179.5,143.8,178.5,143.8,177.4z"/>
				<path id="XMLID_2963_" class="st4" d="M133.4,182.8v-1.4c0.1-2.1,1.9-3.8,4-3.8c2.1,0.1,3.8,1.9,3.8,4v1.4
					c-1.3,0.3-2.6,0.4-4,0.4C135.9,183.3,134.6,183.1,133.4,182.8z"/>
				<path id="XMLID_2962_" class="st4" d="M124.6,174.1c0.8-0.7,1.7-1.1,2.8-1.1c1,0,2,0.5,2.7,1.2c0.7,0.8,1.1,1.7,1.1,2.8
					c0,1-0.5,2-1.2,2.7l-1,1c-0.9-0.6-1.8-1.3-2.6-2.1c-1-1.1-1.8-2.4-2.5-3.8L124.6,174.1z"/>
				<path id="XMLID_2961_" class="st4" d="M127.2,166.6c-0.1,2.1-1.9,3.8-4,3.8h-0.7c-0.1-1-0.2-2-0.2-3c0.1-1.7,0.4-3.3,0.9-4.9
					h0.2C125.5,162.6,127.2,164.4,127.2,166.6z"/>
				<path id="XMLID_2960_" class="st4" d="M130.5,159c-0.8,0.7-1.7,1.1-2.8,1.1c-1,0-2-0.5-2.7-1.2l0,0c1.4-2.2,3.4-4,5.7-5.4v0.1
					C132.1,155.1,132,157.6,130.5,159z"/>
			</g>
			<path id="XMLID_2958_" class="st11" d="M119.5,177.9h1.4c0.2,0,0.3-0.1,0.3-0.3l0.7-22.6c0-0.2-0.1-0.3-0.3-0.3h-1.4
				c-0.2,0-0.3,0.1-0.3,0.3l-0.7,22.6C119.2,177.8,119.3,177.9,119.5,177.9z"/>
			<path id="XMLID_2957_" class="st14" d="M117.8,176.6h1.4l0.6-20.7h-1.4c-0.4,0-0.7,0.2-0.8,0.6c-1.6,6.7-1.8,13.1-0.6,19.5
				C117.1,176.3,117.4,176.6,117.8,176.6z"/>
			<polygon id="XMLID_2956_" class="st15" points="119.9,155.9 118,176.6 119.2,176.6 			"/>
			<g id="XMLID_2947_">
				<path id="XMLID_2955_" class="st12" d="M138.5,139.8c1.1,0,2.1,0.1,3.2,0.3l-0.4,12.2c-0.1,1.7-1.5,3.1-3.3,3.1l0,0
					c-1.7-0.1-3.1-1.5-3.1-3.3l0.4-12.2C136.4,139.8,137.5,139.8,138.5,139.8z"/>
				<path id="XMLID_2954_" class="st12" d="M157.2,148.3c0.7,0.8,1.4,1.6,2,2.4l-8.8,8.4c-1.3,1.2-3.3,1.1-4.5-0.1l0,0
					c-1.2-1.3-1.1-3.3,0.1-4.5l8.8-8.4C155.7,146.8,156.5,147.5,157.2,148.3z"/>
				<path id="XMLID_2953_" class="st12" d="M164.5,167.6c0,1.1-0.1,2.1-0.3,3.2l-12.1-0.4c-1.7-0.1-3.1-1.5-3.1-3.3l0,0
					c0.1-1.7,1.5-3.1,3.3-3.1l12.1,0.4C164.5,165.5,164.5,166.6,164.5,167.6z"/>
				<path id="XMLID_2952_" class="st12" d="M156.1,186.5c-0.8,0.7-1.6,1.4-2.4,2l-8.3-8.9c-1.2-1.3-1.1-3.3,0.1-4.5l0,0
					c1.3-1.2,3.3-1.1,4.5,0.1l8.3,8.9C157.6,185,156.9,185.8,156.1,186.5z"/>
				<path id="XMLID_2951_" class="st12" d="M137,193.9c-1.1,0-2.1-0.1-3.2-0.3l0.4-12.2c0.1-1.7,1.5-3.1,3.3-3.1l0,0
					c1.7,0.1,3.1,1.5,3.1,3.3l-0.4,12.2C139.1,193.9,138,193.9,137,193.9z"/>
				<path id="XMLID_2950_" class="st12" d="M118.3,185.4c-0.7-0.8-1.4-1.6-2-2.4l8.8-8.4c1.3-1.2,3.3-1.1,4.5,0.1l0,0
					c1.2,1.3,1.1,3.3-0.1,4.5l-8.8,8.4C119.8,186.9,119,186.2,118.3,185.4z"/>
				<path id="XMLID_2949_" class="st12" d="M111,166.1c0-1.1,0.1-2.1,0.3-3.2l12.1,0.4c1.7,0.1,3.1,1.5,3.1,3.3l0,0
					c-0.1,1.7-1.5,3.1-3.3,3.1l-12.1-0.4C111,168.2,111,167.1,111,166.1z"/>
				<path id="XMLID_2948_" class="st12" d="M119.4,147.2c0.8-0.7,1.6-1.4,2.4-2l8.3,8.9c1.2,1.3,1.1,3.3-0.1,4.5l0,0
					c-1.3,1.2-3.3,1.1-4.5-0.1l-8.3-8.9C117.9,148.7,118.6,147.9,119.4,147.2z"/>
			</g>
			<g id="XMLID_2942_">
				<ellipse id="XMLID_2946_" class="st12" cx="147" cy="171.1" rx="1.2" ry="1.2"/>
				<ellipse id="XMLID_2945_" class="st12" cx="133.5" cy="176.2" rx="1.2" ry="1.2"/>
				<ellipse id="XMLID_2944_" class="st12" cx="128.4" cy="162.6" rx="1.2" ry="1.2"/>
				<ellipse id="XMLID_2943_" class="st12" cx="141.9" cy="157.4" rx="1.2" ry="1.2"/>
			</g>
			<g id="XMLID_2933_">
				<path id="XMLID_2941_" class="st13" d="M140.6,140l-0.4,11.9c0,0.4-0.4,0.8-0.8,0.8l0,0c-0.4,0-0.8-0.4-0.8-0.8l0.4-12
					C139.6,139.9,140.1,139.9,140.6,140z"/>
				<path id="XMLID_2940_" class="st13" d="M158.6,150l-8.6,8.2c-0.3,0.3-0.8,0.3-1.1,0l0,0c-0.3-0.3-0.3-0.8,0-1.1l8.7-8.3
					C157.9,149,158.3,149.5,158.6,150z"/>
				<path id="XMLID_2939_" class="st13" d="M164.3,169.8l-11.8-0.4c-0.4,0-0.8-0.4-0.8-0.8l0,0c0-0.4,0.4-0.8,0.8-0.8l11.9,0.4
					C164.5,168.7,164.4,169.3,164.3,169.8z"/>
				<path id="XMLID_2938_" class="st13" d="M154.5,188l-8.1-8.7c-0.3-0.3-0.3-0.8,0-1.1l0,0c0.3-0.3,0.8-0.3,1.1,0l8.2,8.8
					C155.4,187.2,155,187.6,154.5,188z"/>
				<path id="XMLID_2937_" class="st13" d="M134.9,193.7l0.4-11.9c0-0.4,0.4-0.8,0.8-0.8l0,0c0.4,0,0.8,0.4,0.8,0.8l-0.4,12
					C136,193.8,135.4,193.8,134.9,193.7z"/>
				<path id="XMLID_2936_" class="st13" d="M116.9,183.8l8.6-8.2c0.3-0.3,0.8-0.3,1.1,0l0,0c0.3,0.3,0.3,0.8,0,1.1l-8.7,8.3
					C117.6,184.6,117.3,184.2,116.9,183.8z"/>
				<path id="XMLID_2935_" class="st13" d="M111.2,164l11.8,0.4c0.4,0,0.8,0.4,0.8,0.8l0,0c0,0.4-0.4,0.8-0.8,0.8l-11.9-0.4
					C111.1,165,111.1,164.5,111.2,164z"/>
				<path id="XMLID_2934_" class="st13" d="M121,145.8l8.1,8.7c0.3,0.3,0.3,0.8,0,1.1l0,0c-0.3,0.3-0.8,0.3-1.1,0l-8.2-8.8
					C120.2,146.5,120.6,146.2,121,145.8z"/>
			</g>
		</g>
		<g id="XMLID_2928_">
			<path id="XMLID_2929_" class="st8" d="M90.9,166.8c0-26.1,21-47.3,46.8-47.3s46.8,21.2,46.8,47.3s-21,47.3-46.8,47.3
				S90.9,192.9,90.9,166.8z M91.6,166.8c0,25.7,20.7,46.6,46.1,46.6s46.1-20.9,46.1-46.6c0-25.7-20.7-46.6-46.1-46.6
				C112.2,120.3,91.6,141.2,91.6,166.8z"/>
		</g>
	</g>
	<path id="XMLID_2926_" class="st16" d="M648.5,156.8h19.4c0.5,0,0.9-0.4,0.9-0.9v-9.6c0-0.5-0.4-0.9-0.9-0.9h-19.4
		c-0.9,0-1.7,0.7-1.7,1.7v8.2C646.9,156.1,647.6,156.8,648.5,156.8z"/>
	<path id="XMLID_2925_" class="st17" d="M651.2,155.7h16.2c0.4,0,0.8-0.3,0.8-0.7v-7.8c0-0.4-0.3-0.7-0.8-0.7h-16.2
		c-0.8,0-1.4,0.6-1.4,1.3v6.6C649.8,155.1,650.5,155.7,651.2,155.7z"/>
	<path id="XMLID_2924_" class="st0" d="M581.3,143.6h87.6c0.8-0.6,0.7-3.2-0.4-3.2h-89.6C579.8,141.4,580.6,142.5,581.3,143.6z"/>
	<path id="XMLID_2923_" class="st0" d="M596.3,201.8h69.2c2.1,0,3.8-1.7,3.8-3.8v-1.5c0-0.2-0.1-0.5-0.2-0.7h-72.9
		C596.4,199.6,596.3,201.8,596.3,201.8z"/>
	<path id="XMLID_2922_" class="st18" d="M627.5,133.9l33.4-0.3c0.3,0,0.5-0.2,0.5-0.5v-3.1l-2.6-6.6l-30.7-1.1
		c-0.8,0-1.5,0.6-1.5,1.4v9.3C626.7,133.5,627,133.9,627.5,133.9z"/>
	<path id="XMLID_2921_" class="st0" d="M602.7,97.9L602.7,97.9l-3.6-3.4c-0.3-0.3-0.6-0.4-1-0.5l-59.7-9.9
		C565.1,89,592.4,94.8,602.7,97.9z"/>
	<g id="XMLID_2919_">
		<path id="XMLID_2920_" class="st4" d="M604.1,98.3C587,92.6,500.8,76.2,479,74.9l-8-1.9l-9.7-1.3l-17.1,3.7l1.5,1.4
			c0.1,0.1,0.2,0.1,0.3,0.1c31.7-2.1,121.1,16.2,185.9,32.9l0.7-2.2C624.6,104.9,614.7,101.8,604.1,98.3z"/>
	</g>
	<path id="XMLID_2918_" class="st3" d="M650.4,114.2c-1.3-0.8-2.9-1.6-4.6-2.2c-3.5-1.3-8-2.8-13.1-4.4l0,0l-0.7,2.2
		c5.8,1.4,11.4,3.1,16.5,5.1L650.4,114.2z"/>
	<path id="XMLID_2917_" class="st0" d="M608.6,181.7h47.1c1.6,0,1.6,3.2,0,3.2h-47.1c-0.9,0-1.6-0.7-1.6-1.6l0,0
		C607.1,182.4,607.8,181.7,608.6,181.7z"/>
	<path id="XMLID_2916_" class="st19" d="M595.5,184.9c0.5,4.2,0.7,8.1,0.8,10.9h72.9c-0.1-0.2-0.2-0.3-0.4-0.5l-3.2-2.7
		c-0.3-0.3-0.5-0.7-0.5-1.1V189c0-0.3-0.1-0.7-0.3-1l-2.1-2.6c-0.3-0.3-0.7-0.5-1.1-0.5h-5.8h-60.3V184.9z"/>
	<path id="XMLID_2915_" class="st0" d="M433.4,85.5l-179.8-4.3c-3.1-0.1-5.5-3-4.9-6.1l11-57.4c0.5-2.4,2.6-4.2,5.1-4.1l59.7,1.7
		c0,0,12.9,0.1,23.7,5c10.6,4.8,61.1,37,60.6,37.8l15.3,11.3c4.5,2.8,8.6,6.2,12,10C438.3,81.8,436.5,85.6,433.4,85.5z"/>
	<path id="XMLID_2914_" class="st5" d="M432.7,82.3c1.1,0,1.6-0.8,1.7-1.1c0.1-0.3,0.4-1.1-0.3-1.9c-3-3.4-6.8-6.6-11.4-9.5h-0.1
		l-16.2-12.2c-6.7-5.1-48.3-31.5-57.9-35.9c-8-3.5-20.8-4.6-20.8-4.6l-61.8-1.8h-0.1c-1.6,0-2.9,1.1-3.2,2.6l-10.8,56.2
		c-0.2,0.9,0.1,1.9,0.7,2.7c0.6,0.8,1.5,1.2,2.5,1.2L432.7,82.3z"/>
	<path id="XMLID_2913_" class="st6" d="M261.8,22.7l57.3,1.6c0,0,12.8,1,20.8,4.6c9.7,4.3,51.3,30.8,57.9,35.9l16.2,12.2h0.1
		c2.5,1.6,4.7,3.2,6.7,5l-165.7-3.9c-1,0-1.9-0.5-2.5-1.2c-0.6-0.8-0.8-1.7-0.7-2.7L261.8,22.7z"/>
	<path id="XMLID_2912_" class="st4" d="M9.7,134.3l77.1,2.1l0,0c-5.4,6.2-9.6,13-12.8,19.5l-64.3-2.1C5.8,153.9,5.8,134.3,9.7,134.3
		z"/>
	<path id="XMLID_2911_" class="st19" d="M9.7,153.9l64.3,2.1c-3.8,7.9-6.2,15.3-7.6,20.6c-1.3,5-5.8,8.3-10.8,8.2l-46-4.5l0,0
		C16.9,179.1,19.6,156.5,9.7,153.9z"/>
	<path id="XMLID_2909_" class="st18" d="M8.4,101c0-0.2,0.1-0.4,0.2-0.6L14,86.7h10.6L17,114.3H8.6l-1.4-2.8c-0.5-1-0.6-2.2-0.4-3.3
		L8.4,101z"/>
	<path id="XMLID_2908_" class="st0" d="M186.2,16.8c-0.3,1.4-1.3,2.5-2.6,2.9c-52.3,16.5-120.5,41.6-155.3,61
		c-1,0.5-1.8,1.4-2.2,2.5L25,87l-7.6,27.6l-0.9-0.3l7.6-27.6l1.1-3.6c0.4-1.4,1.4-2.5,2.6-3C62.7,60.6,131,35.3,183.3,18.9
		c1-0.3,1.8-1.1,1.9-2.2l0.7-3.6c0.3-0.1,0.7-0.2,1-0.3L186.2,16.8z"/>
	<path id="XMLID_2907_" class="st20" d="M18.7,101.4l-2,7.2c-0.1,0.3-0.4,0.5-0.7,0.5H6.7c0-0.3,0-0.6,0.1-0.9l1.6-7.2
		c0-0.2,0.1-0.3,0.2-0.5H18C18.5,100.5,18.8,100.9,18.7,101.4z"/>
	<path id="XMLID_2906_" class="st2" d="M38,67.3c-6.7,2.7-19.8,9.5-21.1,12.5c-0.2,0.5-0.4,0.9-0.6,1.4l2.8-7c1.3-3.2-0.3-7-3.6-8.3
		l-0.9-0.4c-1.9-0.7-2.7-2.9-1.8-4.8l0,0c1.1-2.1,3.3-3.3,5.7-3.1l35.4,3.2C45.8,64.1,39.8,66.6,38,67.3z"/>
	<path id="XMLID_2905_" class="st4" d="M53.8,60.9l-35.4-3.2l27.1-3c3.6-0.5,10.8-0.7,17.4-0.9l9-0.1L53.8,60.9z"/>
	<path id="XMLID_2904_" class="st0" d="M219.9,79.7c2.9,0,5.5-1.9,6.4-4.6l17.5-52.4l1.9-6.1c0.5-1.5-0.7-3-2.3-3l-6,0.1h-0.2
		l-30,1.1c-2.6,0.1-5.2,0.5-7.7,1.1C165.8,24.2,72.3,60.6,72.3,60.6l-3.8,1.7c-0.9,0.4-1.3,1.4-0.9,2.3l1.3,3.1
		c0.4,0.9,0.9,1.8,1.4,2.7l0.9,1.6c0.8,1.3,2,2.3,3.5,2.6l3,0.7c2.4,0.6,4.8,0.9,7.3,1l134.9,3.1C219.8,79.7,219.9,79.7,219.9,79.7z
		"/>
	<path id="XMLID_2903_" class="st5" d="M240.2,20.3l-17.8,53.5c-0.4,1.1-1.4,1.8-2.5,1.8L85.1,72.4c-2.2,0-4.3-0.3-6.4-0.8l-3.1-0.7
		c-0.3-0.1-0.6-0.3-0.8-0.6L73,67.2c-0.5-0.9-0.1-2,0.8-2.4c48.5-19.2,94.2-36.6,126.8-44.7c2.2-0.6,4.5-0.9,6.9-1l31.1-1.1
		C239.7,17.8,240.6,19.1,240.2,20.3z"/>
	<path id="XMLID_2902_" class="st6" d="M75.2,69.4c48.5-19.2,94.2-36.6,126.8-44.7c2.2-0.6,4.5-0.9,6.9-1l30.6-1.1l-17,51.1
		c-0.4,1.1-1.4,1.8-2.5,1.8L85.1,72.4c-2.2,0-4.3-0.3-6.4-0.8l-3.1-0.7c-0.3-0.1-0.6-0.3-0.8-0.6L74.6,70
		C74.8,69.6,75,69.5,75.2,69.4z"/>
	<path id="XMLID_2901_" class="st4" d="M248.2,96.1l26.5,0.6c0.3,0,0.5-0.2,0.5-0.5l0.1-3.7c0-0.3-0.2-0.5-0.5-0.5l-26.5-0.6
		c-0.3,0-0.5,0.2-0.5,0.5l-0.1,3.7C247.7,95.9,247.9,96.1,248.2,96.1z"/>
	<g id="XMLID_2897_">
		<path id="XMLID_2900_" class="st3" d="M275.2,96.4L275.2,96.4L275.2,96.4L275.2,96.4z"/>
		<path id="XMLID_2899_" class="st3" d="M248.2,96.1l26.5,0.6c0.1,0,0.2,0,0.3-0.1l-3.9,4.2c-0.5,0.5-1.2,0.8-2,0.8l-15.4-0.4
			c-0.7,0-1.5-0.4-1.9-0.9l-3.7-4.4C248.1,96.1,248.1,96.1,248.2,96.1z"/>
		<path id="XMLID_2898_" class="st3" d="M247.7,95.8L247.7,95.8L247.7,95.8L247.7,95.8z"/>
	</g>
	<g id="XMLID_2895_">
		<polygon id="XMLID_2896_" class="st0" points="253.5,81.2 253.6,80.2 219.8,78.8 219.7,79.7 		"/>
	</g>
	<path id="XMLID_2893_" class="st0" d="M426.2,72.1c3,2.2,5.7,4.5,7.9,7.1c0.7,0.8,0.4,1.7,0.3,1.9c-0.1,0.3-0.6,1.1-1.7,1.1L423,82
		C421.6,79.4,423.5,73.1,426.2,72.1z"/>
	<path id="XMLID_2891_" class="st2" d="M55.7,184.8c5.1,0.1,9.5-3.2,10.8-8.2c5-18.8,21.8-62.8,71.2-62.8c25.6,0,43.3,15.5,47.1,19
		c0,0,0.4,0.3,1,0.7c10.2,10.6,15.1,24,17.3,38.7c0.9,5.6,5.6,9.7,11.2,9.7h36.7c3.7,2.7,6.9,5.2,9.3,6.9c3.2,2.4,7,3.8,11,4.1
		l32.2,2.3c0.3,0.3,0.5,0.7,0.5,1.1l0,0c0,0.8-0.6,1.5-1.5,1.5l-102.7,3.6c-2.1,0.1-3.9-1.6-4-3.8c-0.3-16.1-4.8-75.9-58.1-75.9
		c-55.5,0-60.5,65.8-61,78.7c0,1.2-1,2.1-2.2,2.1l-60.8-8.1c-3.2-0.4-5.6-3.1-5.6-6.5v-6.3c0-1,0.8-1.7,1.8-1.6L55.7,184.8z"/>
	<path id="XMLID_2890_" class="st0" d="M303.3,195.3l-32.2-2.3c-4-0.3-7.8-1.7-11-4.1c-2.4-1.8-5.6-4.1-9.3-6.9h8.7
		c2.4,1.8,4.6,3.4,6.3,4.6c3.2,2.4,7,3.8,11,4.1l32.2,2.3c0.3,0.3,0.5,0.7,0.5,1.1c0,0.8-0.6,1.5-1.5,1.5h-0.1h-4.4
		C303.6,195.6,303.5,195.4,303.3,195.3z"/>
	<g id="XMLID_2888_">
		<path id="XMLID_2889_" class="st4" d="M499.8,125.4c-6.4,4.5-11.7,10-16.1,15.8l-296.9-6.3c-0.4-0.4-0.7-0.8-1.1-1.2
			c-0.6-0.5-1-0.7-1-0.7c-2.5-2.4-11-9.8-23.7-14.7L499.8,125.4z"/>
	</g>
	<path id="XMLID_2887_" class="st4" d="M479.1,148c-2.6,4.3-4.8,8.7-6.5,12.7l0,0c-0.5,1.2-1,2.4-1.5,3.6c0,0,0,0.1-0.1,0.1
		c-0.1,0.3-0.2,0.5-0.3,0.8c0,0,0,0.1-0.1,0.1c-0.3,0.8-0.6,1.6-0.9,2.3c0,0.1-0.1,0.2-0.1,0.3c-0.1,0.2-0.1,0.4-0.2,0.6
		c0,0.1-0.1,0.2-0.1,0.4c-0.1,0.2-0.1,0.4-0.2,0.6c-0.1,0.2-0.1,0.5-0.2,0.7c-0.1,0.2-0.1,0.4-0.2,0.6c-0.1,0.2-0.1,0.3-0.2,0.5
		c0,0.1-0.1,0.3-0.1,0.4c-0.1,0.2-0.1,0.4-0.2,0.5c0,0.1-0.1,0.2-0.1,0.4c-0.1,0.3-0.2,0.6-0.3,0.8c0,0.1,0,0.1-0.1,0.2
		c-0.1,0.2-0.1,0.4-0.2,0.7c0,0.1-0.1,0.2-0.1,0.3c-0.1,0.2-0.1,0.4-0.2,0.6c0,0.1,0,0.2-0.1,0.3c-0.1,0.3-0.1,0.5-0.2,0.8
		c-1.3,5-5.8,8.3-10.8,8.2l-131.8-2.8h-73.7h-36.4c-5.6,0-10.3-4.1-11.2-9.7c-1.7-11-4.9-21.3-10.7-30.2L479.1,148z"/>
	<path id="XMLID_2886_" class="st4" d="M8.7,114.3L8.6,114l106.4,3.3l0,0c-8.4,2.8-15.4,7.1-21.3,12.2l-85.1-1.7
		C6.8,126,6.6,114.4,8.7,114.3z"/>
	<path id="XMLID_2885_" class="st0" d="M253,97l16.8,0.4c0.3,0,0.5-0.2,0.5-0.5l0.1-3.7c0-0.3-0.2-0.5-0.5-0.5l-16.8-0.4
		c-0.3,0-0.5,0.2-0.5,0.5l-0.1,3.7C252.5,96.7,252.8,97,253,97z"/>
	<path id="XMLID_2884_" class="st20" d="M656.8,131.8l-28.1-0.9c-0.2,0-0.3-0.1-0.3-0.3v-6.8c0-0.2,0.1-0.3,0.3-0.3l26,1
		c0.1,0,0.2,0.1,0.3,0.2l2.1,4.9v0.1v1.8C657.1,131.7,656.9,131.8,656.8,131.8z"/>
	<path id="XMLID_2883_" class="st5" d="M388.3,77.3c0-4.5,0.4-8.9,1.1-12.8c0.2-1,0.9-1.7,1.9-1.9l7-1.2c2-0.3,4-0.3,6,0.1h0.1
		c4.2,0.6,7.8,3.2,9.7,7c1.3,2.5,2.4,5.3,3.3,8.2c0.2,0.7,0.1,1.4-0.4,1.9c-0.4,0.5-0.9,0.9-1.4,1.2c-1.1,0.8-2.5,1.2-3.9,1.2
		c-7-0.1-14-0.4-21.1-1.1C389.3,79.7,388.3,78.6,388.3,77.3z"/>
	<path id="XMLID_2882_" class="st0" d="M462.9,69.8c-5.8-1-11.8-0.3-17.9,2.6l0,0c-0.8,0.2-1.1,1.3-0.4,1.8l0.4,0.3
		c0.2,0.2,0.5,0.2,0.8,0.1c3.6-1.1,9.5-1.3,17.4-0.8c0.2,0,0.3,0,0.5-0.1l0.4-0.1c0.8-0.3,1.2-1.2,0.8-2l-0.3-0.5
		C464.2,70.4,463.6,69.9,462.9,69.8z"/>
	<path id="XMLID_2881_" class="st0" d="M479,74.9v-0.2c0-0.3-0.1-0.6-0.4-0.7l-1.7-1.1c-0.3-0.2-0.7-0.3-1.1-0.4l-11.6-0.6l0.2,0.9
		l5.5,0.6l0.3,0.9l3.2,0.8L479,74.9z"/>
	<path id="XMLID_2880_" class="st19" d="M396.6,74.2c0-4.5,0.4-8.9,1.1-12.8c0.2-1,0.9-1.7,1.9-1.9l7-1.2c2-0.3,4-0.3,6,0.1h0.1
		c4.2,0.6,7.8,3.2,9.7,7c1.3,2.5,2.4,5.3,3.3,8.2c0.2,0.7,0.1,1.4-0.4,1.9c-0.4,0.5-0.9,0.9-1.4,1.2c-1.1,0.8-2.5,1.2-3.9,1.2
		c-7-0.1-14-0.4-21.1-1.1C397.6,76.7,396.6,75.6,396.6,74.2z"/>
	<path id="XMLID_2879_" class="st6" d="M403.5,62.4c0.9,3.9,1,8,0.4,12c-0.1-4.1-0.4-8-1.4-11.3c-0.1-0.5-0.6-1-1.1-1.1l-2-0.6h3.3
		h0.1l12.8-1.2l-11.7,1.5C403.6,61.8,403.4,62.1,403.5,62.4z"/>
	<path id="XMLID_2878_" class="st0" d="M420,78c1.4,0,2.8-0.4,3.9-1.2c0.5-0.4,1-0.8,1.3-1.2c0.2-0.2,0.3-0.5,0.4-0.7l2.2,4.6
		c0.7,1.4-0.3,3-1.9,3h-11.2c-0.9,0-1.8-0.3-2.5-0.9c-0.9-0.7-2.3-1.7-3.7-1.9c-1.9-0.4-6.5-1.5-8.4-2.7C407,77.6,413.5,77.9,420,78
		z"/>
	<path id="XMLID_2877_" class="st0" d="M444.5,78.7c-0.2-0.6,0-1.2,0.4-1.5l0.6-0.6l0.2,0.2c0.1,0.1,0.2,0.1,0.3,0.1
		c0.2,0,0.4,0,0.5,0l-1.1,1c-0.2,0.1-0.2,0.3-0.2,0.5c8.8,30.2,8.4,65.1-1.3,106.4l-0.9-0.2C452.8,143.4,453.3,108.7,444.5,78.7z"/>
	<path id="XMLID_2876_" class="st0" d="M258.1,10.2c-0.5,0-1,0.3-1.2,0.9c-6.6,21.3-12.6,44.7-17.7,69.4v0.1
		c-11.7,27.5-11.5,67.4,0.3,101.4h-1c-11.9-34.2-11.9-74-0.2-101.7c5.2-24.8,11.2-48.1,17.8-69.5c0.3-0.9,1.1-1.5,2.1-1.5l0,0
		c33.5,0,61.5,1.3,85.7,3.8c3.2,0.3,7.6,1.2,10.6,2.6l3,1.4l-0.4,0.9l-3-1.4c-2.9-1.3-7.2-2.2-10.3-2.5
		C319.6,11.5,291.6,10.3,258.1,10.2L258.1,10.2z"/>
	<path id="XMLID_2875_" class="st3" d="M24.2,86.6v0.1H14.1l0.5-1.2c0,0,0.2-0.5,0.5-1.2H25L24.2,86.6z"/>
	<g id="XMLID_2873_" class="st21">
		<path id="XMLID_2874_" class="st0" d="M123.8,123.5c4.1-0.7,8.5-1,13.2-1c8.9,0,16.9,1.7,23.8,4.2c23.6,10.7,31.3,37.7,33.8,56.2
			c-5-23.1-19-52.4-57.6-52.4c-31.8,0-47.7,20-55.5,40.1C86.8,151.3,98.6,129.3,123.8,123.5z"/>
	</g>
	<g id="XMLID_2871_" class="st21">
		<path id="XMLID_2872_" class="st0" d="M524.3,123.5c4.1-0.7,8.5-1,13.2-1c8.9,0,16.9,1.7,23.8,4.2c23.6,10.7,31.3,37.7,33.8,56.2
			c-5-23.1-19-52.4-57.6-52.4c-31.8,0-47.7,20-55.5,40.1C487.4,151.3,499.2,129.3,524.3,123.5z"/>
	</g>
	<path id="XMLID_2894_" class="st16" d="M469.2,136.2h-7.5c-1,0-1.8-0.8-1.8-1.8v-1.7c0-1,0.8-1.8,1.8-1.8h7.5c1,0,1.8,0.8,1.8,1.8
		v1.7C471,135.4,470.2,136.2,469.2,136.2z"/>
	<path id="XMLID_2892_" class="st17" d="M469.2,135.2c0.4,0,0.7-0.3,0.7-0.7v-1.7c0-0.4-0.3-0.7-0.7-0.7h-7.5
		c-0.4,0-0.7,0.3-0.7,0.7v1.7c0,0.4,0.3,0.7,0.7,0.7H469.2z"/>
</g>
</svg>
